<?xml version="1.0" encoding="UTF-8" standalone="no"?> <svg id="Flat" xmlns="http://www.w3.org/2000/svg" viewBox="0 0 340 340"><title>6_anaconda</title><path d="M315.841,314.125a1.3,1.3,0,0,0-1.279-2.206c-6.11,1.976-12.431,1.017-17.871-.936-1.364-.707-2.729-1.193-4.517-1.993a41.679,41.679,0,0,0-19.668-3.968v6c5.107,0,9.517,0,17.218,3.444.623.279,1.246.576,1.869.883a15.68,15.68,0,0,0,1.691.861c1.414.738,2.819,1.511,4.2,2.274s2.892,1.91,4.246,2.754a22.755,22.755,0,0,0,12.648,3.457,1.5,1.5,0,0,0,.465-2.9,54.985,54.985,0,0,1-8.543-3.8,29.277,29.277,0,0,0,4.077-.775A13.14,13.14,0,0,0,315.841,314.125Z" style="fill:#ff5777"/><path d="M250.921,90.832c8.671.02,15.868,2.792,18.117,10.984l51.308-7.5L298.623,52.578c-10.468-6.376-25.58-10.288-47.394-8.312,0,0-24.181,1.567-66.809,21.156,0,0-1.436.619-3.971,1.594C185.449,83.409,210.022,90.854,250.921,90.832Z" style="fill:#9e8e71"/><path d="M314.52,68.48l-.011.009a47.244,47.244,0,0,0-10.121-11.76c-1.929,6.114,3.381,16.781,3.381,16.781A99.909,99.909,0,0,1,312.3,95.491l9.92-1.451A54.089,54.089,0,0,0,314.52,68.48Z" style="fill:#68593a"/><path d="M245.454,81.985c-38.148,3.445-56.472-6.529-65-14.969-10.8,4.157-41.56,14.778-66.043,11.413A39.742,39.742,0,0,1,83.858,55.691,120.6,120.6,0,0,1,78.083,41.2C75.6,33.065,69.253,18.867,56.52,15.609a9.28,9.28,0,0,0-9.592,14.722c.1.128.2.256.308.386A55.921,55.921,0,0,1,59.793,59.264a69.28,69.28,0,0,1,.474,6.993s1.67,48.715,69.314,38.693l79.336-2.505s43.5-21,56.939-6.513C262.32,82.816,245.454,81.985,245.454,81.985Z" style="fill:#68593a"/><path d="M247.865,252.012c-122.3,30.244-192.429-41.294-192.429-41.294C46.759,198.785,41,189.35,37.718,180.947l2.339-33.324c4.883-13.428,11.416-24.214,23.781-31.375l36.521-16.335a190.9,190.9,0,0,1,42.249-6.254l42.182,2.1a294.5,294.5,0,0,1,41.905,8.762c12.58,6.573,24.763,12.031,33.52,7.867a10.3,10.3,0,0,0,8.823-10.53L312.3,95.531h7.74c3.732,65.625-53.189,74.186-53.189,74.186l-75.259-29.3c-71.73-10.259-85.877,11.546-85.877,11.546-2.754,38.993,40.7,59.767,52.7,53.037a114.333,114.333,0,0,0,20.532,2.78,49.758,49.758,0,0,0,29.666-1.564c5.542-.827,8.886-1.641,8.886-1.641Z" style="fill:#9e8e71"/><path d="M322.222,94.04l-9.92,1.451c2.455,29.552-12.613,45.141-21.878,51.835a10.311,10.311,0,0,1-12.156,0C212.2,98.563,109.526,117.057,109.526,117.057c-20.429,3.793-33.868.092-42.015-4.255-1.749.933-3.49,1.894-5.217,2.914a56.367,56.367,0,0,0-24.171,29.365c-6.012,16.548-5.364,28.783,5.1,47.1l46.731-13.706L120.305,183c-6.63-7.822-11.8-17.968-14.588-31.075,0,0,14.147-21.805,85.877-11.546l76.822,30.791S325.954,159.665,322.222,94.04Z" style="fill:#68593a"/><path d="M124.982,79.074a74.681,74.681,0,0,1-10.576-.645,39.276,39.276,0,0,1-18.458-7.7,17.431,17.431,0,0,0-1.878,7.918C94.07,87.8,101,95.22,109.536,95.22,117.944,95.22,124.769,88.027,124.982,79.074Z" style="fill:#383135"/><path d="M209.438,70.731a17.568,17.568,0,0,0,17.186-21.3,287.259,287.259,0,0,0-32.78,11.82A17.57,17.57,0,0,0,209.438,70.731Z" style="fill:#4c474a"/><path d="M87.618,235.805l.051.031a191.355,191.355,0,0,0,25.011,12.769l.043.018c32.918,13.856,79.169,22.447,136.538,5.529l-5.784-9.033c-18.62,6.514-43.246,9.4-70.094,6.808A172.435,172.435,0,0,1,118.9,237.936a11.915,11.915,0,0,1-6.916-12.239c1.175-10.193,7.041-21.266,23.237-30a60.916,60.916,0,0,1-22.155-23.345c-6.209.154-12.432.536-13.924.8-3.154.566-27.121,22.642-29.959,25.8-1.193,1.325-1.659,7.384-1.732,14.241-.62,2.069-1.3,4.341-2.017,6.786,2.417,2.027,5.269,4.293,8.531,6.693l.027.02C77.936,229.591,82.483,232.685,87.618,235.805Z" style="fill:#68593a"/><path d="M252.857,73.51a14.935,14.935,0,0,0-14.481,18.782c10.829-2.269,21.819-2.461,27.48,3.64a14.971,14.971,0,0,0-13-22.422Z" style="fill:#4c474a"/><path d="M265.856,95.932c-1.658-6.148-6.244-9.6-10.649-11.526a27.965,27.965,0,0,0-13.179-2.146q-1.455.1-2.871.179a14.775,14.775,0,0,0-.781,9.853S258,87.622,265.856,95.932Z" style="fill:#383135"/><path d="M298.618,52.585a19.4,19.4,0,0,0,21.728,29.52C317.86,73.04,312.071,60.781,298.618,52.585Z" style="fill:#4c474a"/><path d="M243.955,123.667a17.348,17.348,0,0,0,16.259-11.326c-3.046.605-7.134.492-12.637-.884a215.723,215.723,0,0,0-20.883-6.976,17.794,17.794,0,0,0-.1,1.828A17.358,17.358,0,0,0,243.955,123.667Z" style="fill:#4c474a"/><path d="M142.609,93.626a22.312,22.312,0,0,0,42.181,2.095A247.372,247.372,0,0,0,142.609,93.626Z" style="fill:#4c474a"/><path d="M55.156,120.65a26.292,26.292,0,0,0,45.206-20.765,154.629,154.629,0,0,0-37.287,15.374A63.557,63.557,0,0,0,55.156,120.65Z" style="fill:#4c474a"/><path d="M95,118.607c-12.52.268-21.462-2.587-27.493-5.8-.211.112-.42.229-.63.342q-1.636.885-3.263,1.814c-.283.162-.567.321-.85.486-.431.253-.854.51-1.274.769-.278.17-.556.34-.831.516-.31.2-.612.4-.916.6a54.862,54.862,0,0,0-4.532,3.381A26.27,26.27,0,0,0,95,118.607Z" style="fill:#383135"/><path d="M313.567,137.343a26.038,26.038,0,0,0-37.06,31.331C286.458,164.887,303.288,156.05,313.567,137.343Z" style="fill:#4c474a"/><path d="M303.126,134.272a53.014,53.014,0,0,1-12.7,13.054,10.31,10.31,0,0,1-11.973.122,26.016,26.016,0,0,0-1.944,21.226c14.793-3.11,31.986-19.92,37.06-31.331h0A25.88,25.88,0,0,0,303.126,134.272Z" style="fill:#383135"/><path d="M123.6,186.579a19.729,19.729,0,1,0,34.821,18.383C145.873,202.016,133.458,196.454,123.6,186.579Z" style="fill:#4c474a"/><path d="M135.225,195.7a55.285,55.285,0,0,0-12.815,9.253,19.612,19.612,0,0,1,1.193-18.374A62.472,62.472,0,0,0,135.225,195.7Z" style="fill:#383135"/><path d="M217.5,204.54a15.05,15.05,0,0,0,1.844-.7,7.584,7.584,0,0,0,2.317-1.688c7.668-8.009-2.206-11.6-2.206-11.6a44.246,44.246,0,0,0-13.53-6.777c-7.4-3.284-14.322-5.062-20.294-3.9a138.813,138.813,0,0,0-19.861-.441q-2.223.219-4.358.47c-7.485-.787-15.751,1.212-24.392,4.554a100.37,100.37,0,0,0-17.3,6.3c-8.546.844-15,6.72-20.044,15.955a36.765,36.765,0,0,0,2.241,43.48c22.611,28.109,60.871,31.016,80.708,30.411a80.387,80.387,0,0,0,17.439-2.44c1.61-.411,3.645-.87,6.116-1.318a62.569,62.569,0,0,1,44.315,8.576,234.511,234.511,0,0,0,21.109,11.938,10.869,10.869,0,0,1,4.039,3.339l1.162,7.249c-7.917,13.48-32.146,14.032-62.81,9.777-5.08-.705-13.831-4.306-22.517-2.864-36.559,6.069-67.776,3.649-84.882,3.16-25.924-.741-54.15-18.509-54.15-18.509a87.271,87.271,0,0,1-20.831-21.959c-20.412-30.885-18.055-71.248,4.02-100.967a104.4,104.4,0,0,1,28.233-25.9l19.96-10.313a182.992,182.992,0,0,1,41.786-11.445l27.405-2.673a212.583,212.583,0,0,1,28.478.537q1.206.087,2.4.184c7.93,2.015,17.347,3.139,27.61,3.757a173.059,173.059,0,0,1,38.025,11.819L278.96,161.7a66.517,66.517,0,0,1,7.818,8.783c6.211,8.456,9.7,17.434,10.4,26.32-3.731,25.909-23.98,41.247-49.31,55.171Z" style="fill:#9e8e71"/><path d="M120.675,230.519a16.487,16.487,0,0,0-16.337,14.334,190.01,190.01,0,0,0,30.018,11.379,16.5,16.5,0,0,0-13.681-25.713Z" style="fill:#4c474a"/><path d="M134.362,256.221a16.413,16.413,0,0,0,2.808-9.207,16.584,16.584,0,0,0-.173-2.265,158.3,158.3,0,0,1-18.093-6.813,11.827,11.827,0,0,1-5.761-5.586,16.507,16.507,0,0,0-8.8,12.5A152.455,152.455,0,0,0,134.362,256.221Z" style="fill:#383135"/><path d="M208.766,208.22a14.892,14.892,0,0,0-.155-2.039,154.477,154.477,0,0,1-29.666,1.56c0,.16-.024.317-.024.479a14.923,14.923,0,0,0,29.845,0Z" style="fill:#4c474a"/><path d="M210.434,243.375a16.238,16.238,0,0,0-15.848,19.976,213.454,213.454,0,0,0,32.131-3.71A16.284,16.284,0,0,0,210.434,243.375Z" style="fill:#4c474a"/><path d="M226.716,259.631a16.191,16.191,0,0,0-3.028-9.408,173.462,173.462,0,0,1-28.025,2.613,16.04,16.04,0,0,0-1.077,10.515S211.74,263.009,226.716,259.631Z" style="fill:#383135"/><path d="M221.08,191.917a7.261,7.261,0,0,1,.572,10.232,13.248,13.248,0,1,0-2.2-11.6Q220.3,191.209,221.08,191.917Z" style="fill:#4c474a"/><path d="M266.824,166.367a18.1,18.1,0,0,0,12.131-4.663c-6.933-6.588-16.574-13.322-29.427-19.145a18.178,18.178,0,0,0,17.3,23.808Z" style="fill:#4c474a"/><path d="M294.3,215.924s-18.542,17.9-50.825,29.195l5.784,9.033s34.226-9.431,45.041-38.228Z" style="fill:#68593a"/><path d="M197.553,143.974A13.975,13.975,0,0,0,211.5,130.746a245.514,245.514,0,0,0-27.608-3.754,13.968,13.968,0,0,0,13.659,16.982Z" style="fill:#4c474a"/><path d="M211.541,172.591a13.988,13.988,0,1,0-25.913,7.284,96.209,96.209,0,0,1,20.292,3.907A13.953,13.953,0,0,0,211.541,172.591Z" style="fill:#4c474a"/><path d="M148.025,161.859a13.973,13.973,0,0,0-11.007,22.6,168.444,168.444,0,0,1,24.392-4.553,13.985,13.985,0,0,0-13.385-18.047Z" style="fill:#4c474a"/><path d="M125.561,129.986a13.988,13.988,0,1,0,27.459-3.726,241.147,241.147,0,0,0-27.405,2.671C125.589,129.28,125.561,129.63,125.561,129.986Z" style="fill:#4c474a"/><path d="M89.956,151.432a13.039,13.039,0,0,0-6.125-11.053A132.468,132.468,0,0,0,63.875,150.7c-.014.245-.037.487-.037.736a13.059,13.059,0,1,0,26.118,0Z" style="fill:#4c474a"/><ellipse cx="50.778" cy="211.416" rx="13.059" ry="14.715" style="fill:#4c474a"/><ellipse cx="64.48" cy="263.508" rx="13.059" ry="14.715" transform="translate(-147.657 94.416) rotate(-37.692)" style="fill:#4c474a"/><ellipse cx="119.33" cy="291.714" rx="9.017" ry="10.16" transform="translate(-192.966 249.2) rotate(-60)" style="fill:#4c474a"/><ellipse cx="178.348" cy="298.64" rx="7.531" ry="8.486" transform="translate(-156.775 391.841) rotate(-74.696)" style="fill:#4c474a"/><path d="M99.678,206.714A35.687,35.687,0,0,1,105.537,200a60.653,60.653,0,0,1,14.186-9.239,13.981,13.981,0,1,0-20.045,15.952Z" style="fill:#4c474a"/><path d="M234.748,299.914a3.98,3.98,0,0,1-1.263-.206l-2.3-.763a4,4,0,1,1,2.525-7.591l2.3.763a4,4,0,0,1-1.263,7.8Z" style="fill:#4c474a"/><path d="M274.3,315.345a11.1,11.1,0,0,0,1.34-14.64c-.459,15.936-20.467,15.193-20.467,15.193H229.888c-16.349,0-24.127-8.131-27.617-14.02a2.057,2.057,0,0,0-3.782.713,8.026,8.026,0,0,1-6.3,6.435c-74.02,15.034-117.328,2.433-139.732-9.527A102.668,102.668,0,0,0,75.3,312.234a117.233,117.233,0,0,0,31,7.711c17.005,1.921,50.23,4.105,86.789-1.964a33.284,33.284,0,0,1,20.278,2.93,34.728,34.728,0,0,0,17.427,3.321l26.345-1.647a27.584,27.584,0,0,0,14.8-5.268A26.414,26.414,0,0,0,274.3,315.345Z" style="fill:#68593a"/><path d="M275.262,216.631a19.893,19.893,0,0,0,8.483,16.3,51.415,51.415,0,0,0,12.689-24.353,41.625,41.625,0,0,0,.737-11.776c-.651-.064-1.311-.1-1.979-.1A19.93,19.93,0,0,0,275.262,216.631Z" style="fill:#4c474a"/><path d="M294.3,215.925h0a115.111,115.111,0,0,1-15.6,11.883,20.092,20.092,0,0,0,5.029,5.115C287.223,229.213,290.727,224.659,294.3,215.925Z" style="fill:#383135"/><path d="M320.343,82.106a19.242,19.242,0,0,1-10.114.36Q309.684,80.1,309,77.648a57.509,57.509,0,0,0-2.278-6.482c-1.438-3.491-3.7-10.106-2.337-14.437C304.388,56.729,315.95,64.534,320.343,82.106Z" style="fill:#383135"/></svg>